<svg xmlns="http://www.w3.org/2000/svg" viewBox="0 0 1200 675" role="img"
    aria-label="Bag_selling_app project cover">
    <defs>
        <linearGradient id="bg" x1="0" x2="1" y1="0" y2="1">
            <stop offset="0%" stop-color="#102a43" />
            <stop offset="100%" stop-color="#0ea5e9" />
        </linearGradient>
    </defs>
    <rect width="1200" height="675" fill="url(#bg)" />
    <rect x="120" y="110" width="960" height="455" rx="28" fill="#0b2239" stroke="#334155" />
    <rect x="170" y="150" width="280" height="375" rx="18" fill="#111827" stroke="#475569" />
    <rect x="490" y="150" width="540" height="160" rx="18" fill="#111827" stroke="#475569" />
    <rect x="490" y="335" width="255" height="190" rx="18" fill="#111827" stroke="#475569" />
    <rect x="775" y="335" width="255" height="190" rx="18" fill="#111827" stroke="#475569" />
    <path d="M250 300h120c18 0 32 14 32 32v72H218v-72c0-18 14-32 32-32z" fill="#22d3ee" />
    <path d="M284 295v-18c0-14 12-26 26-26h0c14 0 26 12 26 26v18" fill="none" stroke="#67e8f9"
        stroke-width="8" />
    <text x="160" y="90" font-size="50" font-family="Segoe UI, Arial, sans-serif" font-weight="700"
        fill="#e0f2fe">Bag_selling_app</text>
    <text x="160" y="555" font-size="26" font-family="Segoe UI, Arial, sans-serif" fill="#bae6fd">Dart
        • Product showcase and shopping flows</text>
</svg>